<?xml version="1.0" encoding="UTF-8"?>
<svg xmlns="http://www.w3.org/2000/svg" viewBox="0 0 512 512">
  <defs>
    <style>
      .cls-1, .cls-2 {
        stroke: #fff;
        stroke-miterlimit: 10;
      }

      .cls-3 {
        fill: none;
      }

      .cls-2 {
        fill: #fff;
      }
    </style>
  </defs>
  <g id="Calque_2" data-name="Calque 2">
    <rect class="cls-3" x=".5" y=".5" width="511" height="511"/>
  </g>
  <g id="Calque_1" data-name="Calque 1">
    <circle class="cls-1" cx="256" cy="256" r="255.5"/>
    <path class="cls-2" d="m273.48,149.07c-8.28,14.44-9.98,28.51-10.21,37.13v120.37c.07,4.1.13,35.48-22.97,52.5-28.29,20.84-74.98,8.11-84.24-12.81-.58-1.32-.99-2.61-1.28-3.84h-44.67c6.95,10.58,27.73,39.11,66.37,52.5,30.78,10.67,56.91,6.18,62.54,5.12,9.51-1.79,27.57-5.19,43.4-17.93,34.52-27.79,31.16-78.05,30.63-84.51v-113.68c.2-5.1,1.34-14.85,7.66-24.62,5.06-7.82,11.13-12.08,14.04-14.09,3.68-2.53,9.96-6.19,21.7-8.96,17.18-4.07,33.43-3.26,45.95-1.28-5.41-5.54-17.26-16.16-35.74-21.77-17.75-5.39-32.42-3.35-36.76-2.64-4.25.7-38.3,6.89-56.42,38.49Z"/>
    <path class="cls-2" d="m267.76,147.19c-4.65,2.47-13.23,7.82-20.42,17.85-6.92,9.66-9.3,19.09-10.21,24.23v81.61c-.18,3.56-1.14,12.22-7.66,19.13-9.02,9.56-24.99,11.82-39.57,5.1,13.16,13.02,32.35,16.46,47.23,8.93,16.19-8.2,19.95-25.7,20.42-28.05-1.16-47.97-.96-83.61-.44-96.44.17-4.28.62-11.98,4.27-20.87,2.14-5.22,4.68-9.12,6.38-11.48Z"/>
  </g>
</svg>