<?xml version="1.0" encoding="UTF-8"?>
<svg id="Calque_1" data-name="Calque 1" xmlns="http://www.w3.org/2000/svg" viewBox="0 0 514.34 513">
  <defs>
    <style>
      .cls-1 {
        fill: #fff;
        stroke: #000;
        stroke-miterlimit: 10;
      }
    </style>
  </defs>
  <path class="cls-1" d="m287.11,69.63c-14.5,25.3-17.47,49.94-17.89,65.05v210.85c.12,7.18.24,62.15-40.24,91.97-49.56,36.5-131.34,14.21-147.56-22.43-1.02-2.31-1.74-4.57-2.24-6.73H.93c12.18,18.53,48.58,68.51,116.26,91.97,53.92,18.68,99.69,10.83,109.55,8.97,16.66-3.13,48.29-9.09,76.02-31.4,60.47-48.67,54.59-136.72,53.66-148.04v-199.13c.36-8.94,2.35-26.02,13.41-43.12,8.86-13.7,19.49-21.17,24.59-24.67,6.45-4.43,17.45-10.84,38.01-15.7,30.09-7.12,58.56-5.71,80.49-2.24-9.48-9.7-30.24-28.31-62.6-38.13-31.1-9.44-56.79-5.87-64.39-4.62-7.45,1.23-67.09,12.08-98.83,67.43Z"/>
  <path class="cls-1" d="m277.09,66.34c-8.14,4.33-23.17,13.7-35.77,31.27-12.13,16.91-16.29,33.44-17.89,42.44v142.95c-.31,6.23-1.99,21.4-13.41,33.5-15.81,16.74-43.77,20.7-69.31,8.93,23.05,22.81,56.67,28.83,82.72,15.64,28.36-14.36,34.96-45.01,35.77-49.14-2.03-84.03-1.68-146.46-.77-168.93.3-7.5,1.08-20.99,7.48-36.56,3.76-9.14,8.21-15.97,11.18-20.1Z"/>
</svg>