<?xml version="1.0" encoding="UTF-8"?>
<svg id="Calque_2" data-name="Calque 2" xmlns="http://www.w3.org/2000/svg" viewBox="0 0 512.01 512">
  <path d="m.02,0c0,126.43,0,252.86,0,379.29.24,9.17.48,18.35.72,27.52,28.07-.44,56.14-.88,84.21-1.31.66,2.27,1.89,5.91,4.15,10,16.32,29.59,61.34,37.74,91.27,36,10.33-.6,26.71-1.55,44.6-11,34.7-18.32,50.86-55.79,51.86-82,0-.21,0-.14,0-13,0-13.57,0-36.1,0-49-4.15-.33-8.3-.67-12.45-1-.81,6.38-3.71,21.97-16.59,36-20.85,22.71-50.25,22.13-53.93,22-29.24-1.05-46.82-19.74-49.78-23,26.09,10.63,54.04,7.01,70.52-9,10.33-10.03,13.44-22.3,14.52-29-.35-47.67-.69-95.33-1.04-143,1.39-8.38,4.42-19.86,11.41-32,14.39-24.99,36.46-36.96,46.15-41.5,3.46-25.33,6.91-50.67,10.37-76C197.34,0,98.68,0,.02,0Z"/>
  <path d="m512.01,0c-20.42,0-40.84,0-61.27,0h-167.53v78c-4.48,6.33-10.28,16.04-14.36,29-5.33,16.95-4.93,31.04-4.79,37,.62,26.59.58,82.47.96,157,3.83,3,7.66,6,11.49,9,.32-63.67.64-127.33.96-191,1.72-9.11,5.12-22.44,12.44-37,25.12-49.98,72.03-66.19,77.54-68,7-2.29,39.26-12.17,78.5,0,36.38,11.28,57.96,35.07,66.05,45"/>
  <path d="m512.01,59c-1-2.67-2-5.33-3-8-12.96-1.98-32.94-3.82-57-1-25.23,2.96-48.62,5.71-69,23-21.78,18.47-28.62,43.8-31,57v223c.48,13.29.16,52.11-26,90-6.85,9.93-27.16,36.7-64,52-21.01,8.72-38.45,10-54,11-20.08,1.29-64.15,3.59-113-20-52.59-25.4-79.82-65.87-90-83-1.66-7.9-3.32-15.8-4.98-23.7,0,44.23-.01,88.47-.02,132.7h512.01V59Z"/>
</svg>